<svg xmlns="http://www.w3.org/2000/svg" viewBox="0 0 99.66 99.84"><title>star.svg</title><g id="Camada_2" data-name="Camada 2"><g id="Camada_1-2" data-name="Camada 1"><g id="_0nZwj2.tif" data-name="0nZwj2.tif"><path d="M61.59,38.07H99.66l-.37.32c-2,1.49-4,3-6,4.48q-3.55,2.69-7.08,5.41l-3.14,2.42L76,56.1l-3.36,2.57c-1.15.88-2.32,1.75-3.45,2.67A.8.8,0,0,0,69,62c1.24,4.09,2.52,8.18,3.78,12.26L78.5,92.88c.64,2.06,1.26,4.13,1.89,6.2.06.18.1.37.19.76-.82-.67-1.49-1.23-2.18-1.76-2.06-1.56-4.13-3.09-6.19-4.65-1.09-.82-2.16-1.66-3.25-2.49l-7-5.33c-2.31-1.76-4.62-3.52-6.92-5.29q-2.4-1.85-4.77-3.74a.7.7,0,0,0-1,0c-1.39,1.08-2.8,2.13-4.2,3.2-.86.65-1.7,1.33-2.55,2l-4.37,3.31L34.8,87.64,27.93,92.9c-1.17.9-2.35,1.79-3.51,2.69L19.53,99.4c-.12.09-.25.17-.5.34.17-.6.28-1.08.43-1.55Q21.37,92,23.29,85.87,26.17,76.52,29,67.16c.51-1.66,1-3.33,1.55-5a.7.7,0,0,0-.29-.93c-2-1.48-4-3-6-4.51-1.19-.9-2.38-1.82-3.57-2.72l-3.35-2.57-6.92-5.29L7.18,43.64l-7-5.38A1.24,1.24,0,0,1,0,38.06H38L49.73,0h.13Z"/></g></g></g></svg>